{
    "asset" : {
        "generator" : "Khronos glTF Blender I/O v1.1.45",
        "version" : "2.0"
    },
    "scene" : 0,
    "scenes" : [
        {
            "name" : "Scene",
            "nodes" : [
                4
            ]
        }
    ],
    "nodes" : [
        {
            "mesh" : 0,
            "name" : "Object_4"
        },
        {
            "children" : [
                0
            ],
            "name" : "_0"
        },
        {
            "children" : [
                1
            ],
            "name" : "GLTF_SceneRootNode",
            "rotation" : [
                0.7071068286895752,
                0,
                0,
                0.7071068286895752
            ]
        },
        {
            "children" : [
                2
            ],
            "name" : "root"
        },
        {
            "children" : [
                3
            ],
            "name" : "Sketchfab_model",
            "scale" : [
                1.1593624353408813,
                1.1593626737594604,
                1.1593626737594604
            ],
            "translation" : [
                0.04943500831723213,
                0.045399513095617294,
                0.005044389981776476
            ]
        }
    ],
    "materials" : [
        {
            "emissiveFactor" : [
                1,
                1,
                1
            ],
            "emissiveTexture" : {
                "index" : 0,
                "texCoord" : 0
            },
            "name" : "material_0",
            "pbrMetallicRoughness" : {}
        }
    ],
    "meshes" : [
        {
            "name" : "Object_0",
            "primitives" : [
                {
                    "attributes" : {
                        "POSITION" : 0,
                        "NORMAL" : 1,
                        "TEXCOORD_0" : 2,
                        "TEXCOORD_1" : 3,
                        "TEXCOORD_2" : 4,
                        "TEXCOORD_3" : 5,
                        "TEXCOORD_4" : 6
                    },
                    "indices" : 7,
                    "material" : 0
                }
            ]
        }
    ],
    "textures" : [
        {
            "source" : 0
        }
    ],
    "images" : [
        {
            "mimeType" : "image/png",
            "name" : "material_0_baseColor",
            "uri" : "material_0_baseColor.png"
        }
    ],
    "accessors" : [
        {
            "bufferView" : 0,
            "componentType" : 5126,
            "count" : 23629,
            "max" : [
                0.05846519023180008,
                0.0959702655673027,
                0.03759652376174927
            ],
            "min" : [
                -0.14959397912025452,
                -0.1054261103272438,
                -0.019991079345345497
            ],
            "type" : "VEC3"
        },
        {
            "bufferView" : 1,
            "componentType" : 5126,
            "count" : 23629,
            "type" : "VEC3"
        },
        {
            "bufferView" : 2,
            "componentType" : 5126,
            "count" : 23629,
            "type" : "VEC2"
        },
        {
            "bufferView" : 3,
            "componentType" : 5126,
            "count" : 23629,
            "type" : "VEC2"
        },
        {
            "bufferView" : 4,
            "componentType" : 5126,
            "count" : 23629,
            "type" : "VEC2"
        },
        {
            "bufferView" : 5,
            "componentType" : 5126,
            "count" : 23629,
            "type" : "VEC2"
        },
        {
            "bufferView" : 6,
            "componentType" : 5126,
            "count" : 23629,
            "type" : "VEC2"
        },
        {
            "bufferView" : 7,
            "componentType" : 5123,
            "count" : 110901,
            "type" : "SCALAR"
        }
    ],
    "bufferViews" : [
        {
            "buffer" : 0,
            "byteLength" : 283548,
            "byteOffset" : 0
        },
        {
            "buffer" : 0,
            "byteLength" : 283548,
            "byteOffset" : 283548
        },
        {
            "buffer" : 0,
            "byteLength" : 189032,
            "byteOffset" : 567096
        },
        {
            "buffer" : 0,
            "byteLength" : 189032,
            "byteOffset" : 756128
        },
        {
            "buffer" : 0,
            "byteLength" : 189032,
            "byteOffset" : 945160
        },
        {
            "buffer" : 0,
            "byteLength" : 189032,
            "byteOffset" : 1134192
        },
        {
            "buffer" : 0,
            "byteLength" : 189032,
            "byteOffset" : 1323224
        },
        {
            "buffer" : 0,
            "byteLength" : 221802,
            "byteOffset" : 1512256
        }
    ],
    "buffers" : [
        {
            "byteLength" : 1734060,
            "uri" : "scene.bin"
        }
    ]
}
