{
  "accessors": [
    {
      "bufferView": 2,
      "componentType": 5126,
      "count": 20942,
      "max": [
        1.8462846279144287,
        0.6701424717903137,
        1.4896392822265625
      ],
      "min": [
        -1.8462846279144287,
        -1.2483582496643066,
        -1.0743921995162964
      ],
      "type": "VEC3"
    },
    {
      "bufferView": 2,
      "byteOffset": 251304,
      "componentType": 5126,
      "count": 20942,
      "max": [
        1.0,
        0.9999810457229614,
        0.9999996423721313
      ],
      "min": [
        -1.0,
        -0.999954104423523,
        -1.0
      ],
      "type": "VEC3"
    },
    {
      "bufferView": 3,
      "componentType": 5126,
      "count": 20942,
      "max": [
        1.0,
        0.9999978542327881,
        0.9999729990959167,
        1.0
      ],
      "min": [
        -1.0,
        -0.9999943971633911,
        -0.9999861121177673,
        1.0
      ],
      "type": "VEC4"
    },
    {
      "bufferView": 1,
      "componentType": 5126,
      "count": 20942,
      "max": [
        0.9773909449577332,
        0.9871212840080261
      ],
      "min": [
        0.02170882560312748,
        0.02123451977968216
      ],
      "type": "VEC2"
    },
    {
      "bufferView": 1,
      "byteOffset": 167536,
      "componentType": 5126,
      "count": 20942,
      "max": [
        0.9773909449577332,
        0.9871212840080261
      ],
      "min": [
        0.02170882560312748,
        0.02123451977968216
      ],
      "type": "VEC2"
    },
    {
      "bufferView": 1,
      "byteOffset": 335072,
      "componentType": 5126,
      "count": 20942,
      "max": [
        0.9773909449577332,
        0.9871212840080261
      ],
      "min": [
        0.02170882560312748,
        0.02123451977968216
      ],
      "type": "VEC2"
    },
    {
      "bufferView": 1,
      "byteOffset": 502608,
      "componentType": 5126,
      "count": 20942,
      "max": [
        0.9773909449577332,
        0.9871212840080261
      ],
      "min": [
        0.02170882560312748,
        0.02123451977968216
      ],
      "type": "VEC2"
    },
    {
      "bufferView": 0,
      "componentType": 5125,
      "count": 117504,
      "type": "SCALAR"
    }
  ],
  "asset": {
    "extras": {
      "author": "3DGuimaraes (https://sketchfab.com/3DGuimaraes)",
      "license": "CC-BY-4.0 (http://creativecommons.org/licenses/by/4.0/)",
      "source": "https://sketchfab.com/3d-models/bag-asset-150afe52eb8b4de1a6906aab3dc9eed5",
      "title": "Bag asset"
    },
    "generator": "Sketchfab-12.67.0",
    "version": "2.0"
  },
  "bufferViews": [
    {
      "buffer": 0,
      "byteLength": 470016,
      "name": "floatBufferViews",
      "target": 34963
    },
    {
      "buffer": 0,
      "byteLength": 670144,
      "byteOffset": 470016,
      "byteStride": 8,
      "name": "floatBufferViews",
      "target": 34962
    },
    {
      "buffer": 0,
      "byteLength": 502608,
      "byteOffset": 1140160,
      "byteStride": 12,
      "name": "floatBufferViews",
      "target": 34962
    },
    {
      "buffer": 0,
      "byteLength": 335072,
      "byteOffset": 1642768,
      "byteStride": 16,
      "name": "floatBufferViews",
      "target": 34962
    }
  ],
  "buffers": [
    {
      "byteLength": 1977840,
      "uri": "scene.bin"
    }
  ],
  "images": [
    {
      "uri": "textures/material_baseColor.png"
    },
    {
      "uri": "textures/material_metallicRoughness.png"
    },
    {
      "uri": "textures/material_normal.png"
    }
  ],
  "materials": [
    {
      "doubleSided": true,
      "name": "material",
      "normalTexture": {
        "index": 2
      },
      "occlusionTexture": {
        "index": 1
      },
      "pbrMetallicRoughness": {
        "baseColorTexture": {
          "index": 0
        },
        "metallicRoughnessTexture": {
          "index": 1
        }
      }
    }
  ],
  "meshes": [
    {
      "name": "Object_0",
      "primitives": [
        {
          "attributes": {
            "NORMAL": 1,
            "POSITION": 0,
            "TANGENT": 2,
            "TEXCOORD_0": 3,
            "TEXCOORD_1": 4,
            "TEXCOORD_2": 5,
            "TEXCOORD_3": 6
          },
          "indices": 7,
          "material": 0,
          "mode": 4
        }
      ]
    }
  ],
  "nodes": [
    {
      "children": [
        1
      ],
      "matrix": [
        1.0,
        0.0,
        0.0,
        0.0,
        0.0,
        2.220446049250313e-16,
        -1.0,
        0.0,
        0.0,
        1.0,
        2.220446049250313e-16,
        0.0,
        0.0,
        0.0,
        0.0,
        1.0
      ],
      "name": "Sketchfab_model"
    },
    {
      "children": [
        2
      ],
      "name": "root"
    },
    {
      "children": [
        3
      ],
      "matrix": [
        1.0,
        0.0,
        0.0,
        0.0,
        0.0,
        2.220446049250313e-16,
        1.0,
        0.0,
        0.0,
        -1.0,
        2.220446049250313e-16,
        0.0,
        0.0,
        0.0,
        0.0,
        1.0
      ],
      "name": "GLTF_SceneRootNode"
    },
    {
      "children": [
        4
      ],
      "matrix": [
        1.0,
        0.0,
        0.0,
        0.0,
        0.0,
        -1.685873969314855e-07,
        0.9999999999999858,
        0.0,
        0.0,
        -0.9999999999999858,
        -1.685873969314855e-07,
        0.0,
        0.0,
        0.0,
        0.0,
        1.0
      ],
      "name": "pouch_body_Mesh_0"
    },
    {
      "mesh": 0,
      "name": "Object_4"
    }
  ],
  "samplers": [
    {
      "magFilter": 9729,
      "minFilter": 9987,
      "wrapS": 10497,
      "wrapT": 10497
    }
  ],
  "scene": 0,
  "scenes": [
    {
      "name": "Sketchfab_Scene",
      "nodes": [
        0
      ]
    }
  ],
  "textures": [
    {
      "sampler": 0,
      "source": 0
    },
    {
      "sampler": 0,
      "source": 1
    },
    {
      "sampler": 0,
      "source": 2
    }
  ]
}
