{
  "accessors": [
    {
      "bufferView": 2,
      "componentType": 5126,
      "count": 84,
      "max": [
        -0.21278800070285797,
        0.5454369783401489,
        0.08740600198507309
      ],
      "min": [
        -0.45082199573516846,
        0.3497009873390198,
        -0.02752700075507164
      ],
      "type": "VEC3"
    },
    {
      "bufferView": 2,
      "byteOffset": 1008,
      "componentType": 5126,
      "count": 84,
      "max": [
        0.8732262849807739,
        0.5907498598098755,
        0.9944930076599121
      ],
      "min": [
        -0.7956031560897827,
        -0.9926656484603882,
        -0.6934018135070801
      ],
      "type": "VEC3"
    },
    {
      "bufferView": 1,
      "componentType": 5126,
      "count": 84,
      "max": [
        0.8392840027809143,
        0.9608240127563477
      ],
      "min": [
        0.2184309959411621,
        0.10954499989748001
      ],
      "type": "VEC2"
    },
    {
      "bufferView": 0,
      "componentType": 5125,
      "count": 129,
      "type": "SCALAR"
    },
    {
      "bufferView": 2,
      "byteOffset": 2016,
      "componentType": 5126,
      "count": 16973,
      "max": [
        1.0242840051651,
        0.7265869975090027,
        0.46810901165008545
      ],
      "min": [
        -0.6372759938240051,
        -0.7304739952087402,
        -0.00888499990105629
      ],
      "type": "VEC3"
    },
    {
      "bufferView": 2,
      "byteOffset": 205692,
      "componentType": 5126,
      "count": 16973,
      "max": [
        0.9998228549957275,
        0.9999573826789856,
        0.999700129032135
      ],
      "min": [
        -0.9998062252998352,
        -0.9999591112136841,
        -0.9882497787475586
      ],
      "type": "VEC3"
    },
    {
      "bufferView": 1,
      "byteOffset": 672,
      "componentType": 5126,
      "count": 16973,
      "max": [
        0.9974759817123413,
        0.9846320152282715
      ],
      "min": [
        0.00016999999934341758,
        0.00016999999934341758
      ],
      "type": "VEC2"
    },
    {
      "bufferView": 0,
      "byteOffset": 516,
      "componentType": 5125,
      "count": 53970,
      "type": "SCALAR"
    },
    {
      "bufferView": 2,
      "byteOffset": 409368,
      "componentType": 5126,
      "count": 3985,
      "max": [
        1.5411159992218018,
        0.7778909802436829,
        0.22302299737930298
      ],
      "min": [
        -1.5411159992218018,
        -0.7778909802436829,
        -0.022665999829769135
      ],
      "type": "VEC3"
    },
    {
      "bufferView": 2,
      "byteOffset": 457188,
      "componentType": 5126,
      "count": 3985,
      "max": [
        0.9989957809448242,
        0.9986282587051392,
        1.0
      ],
      "min": [
        -0.9989955425262451,
        -0.9986284971237183,
        -1.0
      ],
      "type": "VEC3"
    },
    {
      "bufferView": 1,
      "byteOffset": 136456,
      "componentType": 5126,
      "count": 3985,
      "max": [
        0.990693986415863,
        0.9867290258407593
      ],
      "min": [
        0.00016999999934341758,
        0.06657599657773972
      ],
      "type": "VEC2"
    },
    {
      "bufferView": 0,
      "byteOffset": 216396,
      "componentType": 5125,
      "count": 21543,
      "type": "SCALAR"
    }
  ],
  "asset": {
    "extras": {
      "author": "jjagdishwar (https://sketchfab.com/jjagdishwar)",
      "license": "CC-BY-4.0 (http://creativecommons.org/licenses/by/4.0/)",
      "source": "https://sketchfab.com/3d-models/chicken-meal-7481fbdc55104b7eaee2db7cf40f91c5",
      "title": "Chicken Meal"
    },
    "generator": "Sketchfab-12.68.0",
    "version": "2.0"
  },
  "bufferViews": [
    {
      "buffer": 0,
      "byteLength": 302568,
      "name": "floatBufferViews",
      "target": 34963
    },
    {
      "buffer": 0,
      "byteLength": 168336,
      "byteOffset": 302568,
      "byteStride": 8,
      "name": "floatBufferViews",
      "target": 34962
    },
    {
      "buffer": 0,
      "byteLength": 505008,
      "byteOffset": 470904,
      "byteStride": 12,
      "name": "floatBufferViews",
      "target": 34962
    }
  ],
  "buffers": [
    {
      "byteLength": 975912,
      "uri": "scene.bin"
    }
  ],
  "extensionsUsed": [
    "KHR_materials_unlit"
  ],
  "images": [
    {
      "uri": "textures/SimplygonMaterial_2SG_baseColor.jpeg"
    }
  ],
  "materials": [
    {
      "doubleSided": true,
      "extensions": {
        "KHR_materials_unlit": {}
      },
      "name": "SimplygonMaterial_2SG",
      "pbrMetallicRoughness": {
        "baseColorTexture": {
          "index": 0
        },
        "metallicFactor": 0.0
      }
    }
  ],
  "meshes": [
    {
      "name": "Object_0",
      "primitives": [
        {
          "attributes": {
            "NORMAL": 1,
            "POSITION": 0,
            "TEXCOORD_0": 2
          },
          "indices": 3,
          "material": 0,
          "mode": 4
        }
      ]
    },
    {
      "name": "Object_1",
      "primitives": [
        {
          "attributes": {
            "NORMAL": 5,
            "POSITION": 4,
            "TEXCOORD_0": 6
          },
          "indices": 7,
          "material": 0,
          "mode": 4
        }
      ]
    },
    {
      "name": "Object_2",
      "primitives": [
        {
          "attributes": {
            "NORMAL": 9,
            "POSITION": 8,
            "TEXCOORD_0": 10
          },
          "indices": 11,
          "material": 0,
          "mode": 4
        }
      ]
    }
  ],
  "nodes": [
    {
      "children": [
        1
      ],
      "matrix": [
        0.11986257135868073,
        0.0,
        0.0,
        0.0,
        0.0,
        2.6614837302636635e-17,
        -0.11986257135868073,
        0.0,
        0.0,
        0.11986257135868073,
        2.6614837302636635e-17,
        0.0,
        0.0,
        0.0,
        0.0,
        1.0
      ],
      "name": "Sketchfab_model"
    },
    {
      "children": [
        2,
        3,
        4
      ],
      "name": "Ricechicken.obj.cleaner.materialmerger.gles"
    },
    {
      "mesh": 0,
      "name": "Object_2"
    },
    {
      "mesh": 1,
      "name": "Object_3"
    },
    {
      "mesh": 2,
      "name": "Object_4"
    }
  ],
  "samplers": [
    {
      "magFilter": 9729,
      "minFilter": 9987,
      "wrapS": 10497,
      "wrapT": 10497
    }
  ],
  "scene": 0,
  "scenes": [
    {
      "name": "Sketchfab_Scene",
      "nodes": [
        0
      ]
    }
  ],
  "textures": [
    {
      "sampler": 0,
      "source": 0
    }
  ]
}
