{
    "asset" : {
        "generator" : "Khronos glTF Blender I/O v1.1.45",
        "version" : "2.0"
    },
    "scene" : 0,
    "scenes" : [
        {
            "name" : "Scene",
            "nodes" : [
                13
            ]
        }
    ],
    "nodes" : [
        {
            "mesh" : 0,
            "name" : "model_tex_u1_v1_0"
        },
        {
            "mesh" : 1,
            "name" : "model_tex_u1_v1_0.001"
        },
        {
            "mesh" : 2,
            "name" : "model_tex_u1_v1_0.002"
        },
        {
            "mesh" : 3,
            "name" : "model_tex_u1_v1_0.003"
        },
        {
            "mesh" : 4,
            "name" : "model_tex_u1_v1_0.004"
        },
        {
            "mesh" : 5,
            "name" : "model_tex_u1_v1_0.005"
        },
        {
            "mesh" : 6,
            "name" : "model_tex_u1_v1_0.006"
        },
        {
            "mesh" : 7,
            "name" : "model_tex_u1_v1_0.007"
        },
        {
            "mesh" : 8,
            "name" : "model_tex_u1_v1_0.008"
        },
        {
            "mesh" : 9,
            "name" : "model_tex_u1_v1_0.009"
        },
        {
            "children" : [
                0,
                1,
                2,
                3,
                4,
                5,
                6,
                7,
                8,
                9
            ],
            "name" : "model"
        },
        {
            "children" : [
                10
            ],
            "name" : "RootNode"
        },
        {
            "children" : [
                11
            ],
            "name" : "model.fbx",
            "rotation" : [
                1,
                0,
                0,
                0
            ]
        },
        {
            "children" : [
                12
            ],
            "name" : "Sketchfab_model",
            "scale" : [
                1.225858449935913,
                1.2258586883544922,
                1.2258586883544922
            ],
            "translation" : [
                -0.20480220019817352,
                0.5876721143722534,
                0.28952756524086
            ]
        }
    ],
    "materials" : [
        {
            "doubleSided" : true,
            "emissiveFactor" : [
                1,
                1,
                1
            ],
            "emissiveTexture" : {
                "index" : 0,
                "texCoord" : 0
            },
            "name" : "tex_u1_v1.001",
            "pbrMetallicRoughness" : {}
        }
    ],
    "meshes" : [
        {
            "name" : "model_tex_u1_v1_0.013",
            "primitives" : [
                {
                    "attributes" : {
                        "POSITION" : 0,
                        "NORMAL" : 1,
                        "TEXCOORD_0" : 2,
                        "TEXCOORD_1" : 3
                    },
                    "indices" : 4,
                    "material" : 0
                }
            ]
        },
        {
            "name" : "model_tex_u1_v1_0.014",
            "primitives" : [
                {
                    "attributes" : {
                        "POSITION" : 5,
                        "NORMAL" : 6,
                        "TEXCOORD_0" : 7,
                        "TEXCOORD_1" : 8
                    },
                    "indices" : 9,
                    "material" : 0
                }
            ]
        },
        {
            "name" : "model_tex_u1_v1_0.015",
            "primitives" : [
                {
                    "attributes" : {
                        "POSITION" : 10,
                        "NORMAL" : 11,
                        "TEXCOORD_0" : 12,
                        "TEXCOORD_1" : 13
                    },
                    "indices" : 14,
                    "material" : 0
                }
            ]
        },
        {
            "name" : "model_tex_u1_v1_0.016",
            "primitives" : [
                {
                    "attributes" : {
                        "POSITION" : 15,
                        "NORMAL" : 16,
                        "TEXCOORD_0" : 17,
                        "TEXCOORD_1" : 18
                    },
                    "indices" : 19,
                    "material" : 0
                }
            ]
        },
        {
            "name" : "model_tex_u1_v1_0.017",
            "primitives" : [
                {
                    "attributes" : {
                        "POSITION" : 20,
                        "NORMAL" : 21,
                        "TEXCOORD_0" : 22,
                        "TEXCOORD_1" : 23
                    },
                    "indices" : 24,
                    "material" : 0
                }
            ]
        },
        {
            "name" : "model_tex_u1_v1_0.018",
            "primitives" : [
                {
                    "attributes" : {
                        "POSITION" : 25,
                        "NORMAL" : 26,
                        "TEXCOORD_0" : 27,
                        "TEXCOORD_1" : 28
                    },
                    "indices" : 29,
                    "material" : 0
                }
            ]
        },
        {
            "name" : "model_tex_u1_v1_0.019",
            "primitives" : [
                {
                    "attributes" : {
                        "POSITION" : 30,
                        "NORMAL" : 31,
                        "TEXCOORD_0" : 32,
                        "TEXCOORD_1" : 33
                    },
                    "indices" : 34,
                    "material" : 0
                }
            ]
        },
        {
            "name" : "model_tex_u1_v1_0.020",
            "primitives" : [
                {
                    "attributes" : {
                        "POSITION" : 35,
                        "NORMAL" : 36,
                        "TEXCOORD_0" : 37,
                        "TEXCOORD_1" : 38
                    },
                    "indices" : 39,
                    "material" : 0
                }
            ]
        },
        {
            "name" : "model_tex_u1_v1_0.021",
            "primitives" : [
                {
                    "attributes" : {
                        "POSITION" : 40,
                        "NORMAL" : 41,
                        "TEXCOORD_0" : 42,
                        "TEXCOORD_1" : 43
                    },
                    "indices" : 44,
                    "material" : 0
                }
            ]
        },
        {
            "name" : "model_tex_u1_v1_0.022",
            "primitives" : [
                {
                    "attributes" : {
                        "POSITION" : 45,
                        "NORMAL" : 46,
                        "TEXCOORD_0" : 47,
                        "TEXCOORD_1" : 48
                    },
                    "indices" : 49,
                    "material" : 0
                }
            ]
        }
    ],
    "textures" : [
        {
            "source" : 0
        }
    ],
    "images" : [
        {
            "mimeType" : "image/png",
            "name" : "tex_u1_v1_baseColor",
            "uri" : "tex_u1_v1_baseColor.png"
        }
    ],
    "accessors" : [
        {
            "bufferView" : 0,
            "componentType" : 5126,
            "count" : 66040,
            "max" : [
                0.36068761348724365,
                0.47809115052223206,
                0.3825492858886719
            ],
            "min" : [
                0.029959097504615784,
                0.39472371339797974,
                0.15120607614517212
            ],
            "type" : "VEC3"
        },
        {
            "bufferView" : 1,
            "componentType" : 5126,
            "count" : 66040,
            "type" : "VEC3"
        },
        {
            "bufferView" : 2,
            "componentType" : 5126,
            "count" : 66040,
            "type" : "VEC2"
        },
        {
            "bufferView" : 3,
            "componentType" : 5126,
            "count" : 66040,
            "type" : "VEC2"
        },
        {
            "bufferView" : 4,
            "componentType" : 5125,
            "count" : 303612,
            "type" : "SCALAR"
        },
        {
            "bufferView" : 5,
            "componentType" : 5126,
            "count" : 65835,
            "max" : [
                0.27021488547325134,
                0.476854145526886,
                0.327308714389801
            ],
            "min" : [
                0.06043931096792221,
                0.3986884355545044,
                0.1675383746623993
            ],
            "type" : "VEC3"
        },
        {
            "bufferView" : 6,
            "componentType" : 5126,
            "count" : 65835,
            "type" : "VEC3"
        },
        {
            "bufferView" : 7,
            "componentType" : 5126,
            "count" : 65835,
            "type" : "VEC2"
        },
        {
            "bufferView" : 8,
            "componentType" : 5126,
            "count" : 65835,
            "type" : "VEC2"
        },
        {
            "bufferView" : 9,
            "componentType" : 5125,
            "count" : 302103,
            "type" : "SCALAR"
        },
        {
            "bufferView" : 10,
            "componentType" : 5126,
            "count" : 66162,
            "max" : [
                0.3620842695236206,
                0.47843360900878906,
                0.38279056549072266
            ],
            "min" : [
                -0.025389090180397034,
                0.39845308661460876,
                0.11407829076051712
            ],
            "type" : "VEC3"
        },
        {
            "bufferView" : 11,
            "componentType" : 5126,
            "count" : 66162,
            "type" : "VEC3"
        },
        {
            "bufferView" : 12,
            "componentType" : 5126,
            "count" : 66162,
            "type" : "VEC2"
        },
        {
            "bufferView" : 13,
            "componentType" : 5126,
            "count" : 66162,
            "type" : "VEC2"
        },
        {
            "bufferView" : 14,
            "componentType" : 5125,
            "count" : 261348,
            "type" : "SCALAR"
        },
        {
            "bufferView" : 15,
            "componentType" : 5126,
            "count" : 65894,
            "max" : [
                0.3048990070819855,
                0.47809115052223206,
                0.3829599618911743
            ],
            "min" : [
                0.02166534960269928,
                0.40471208095550537,
                0.10135554522275925
            ],
            "type" : "VEC3"
        },
        {
            "bufferView" : 16,
            "componentType" : 5126,
            "count" : 65894,
            "type" : "VEC3"
        },
        {
            "bufferView" : 17,
            "componentType" : 5126,
            "count" : 65894,
            "type" : "VEC2"
        },
        {
            "bufferView" : 18,
            "componentType" : 5126,
            "count" : 65894,
            "type" : "VEC2"
        },
        {
            "bufferView" : 19,
            "componentType" : 5125,
            "count" : 280188,
            "type" : "SCALAR"
        },
        {
            "bufferView" : 20,
            "componentType" : 5126,
            "count" : 65882,
            "max" : [
                0.33075034618377686,
                0.47809115052223206,
                0.3007170557975769
            ],
            "min" : [
                -0.026728570461273193,
                0.3969380855560303,
                0.09490757435560226
            ],
            "type" : "VEC3"
        },
        {
            "bufferView" : 21,
            "componentType" : 5126,
            "count" : 65882,
            "type" : "VEC3"
        },
        {
            "bufferView" : 22,
            "componentType" : 5126,
            "count" : 65882,
            "type" : "VEC2"
        },
        {
            "bufferView" : 23,
            "componentType" : 5126,
            "count" : 65882,
            "type" : "VEC2"
        },
        {
            "bufferView" : 24,
            "componentType" : 5125,
            "count" : 295467,
            "type" : "SCALAR"
        },
        {
            "bufferView" : 25,
            "componentType" : 5126,
            "count" : 65905,
            "max" : [
                0.36694055795669556,
                0.47809115052223206,
                0.34256237745285034
            ],
            "min" : [
                -0.02588266134262085,
                0.39883625507354736,
                0.10364080965518951
            ],
            "type" : "VEC3"
        },
        {
            "bufferView" : 26,
            "componentType" : 5126,
            "count" : 65905,
            "type" : "VEC3"
        },
        {
            "bufferView" : 27,
            "componentType" : 5126,
            "count" : 65905,
            "type" : "VEC2"
        },
        {
            "bufferView" : 28,
            "componentType" : 5126,
            "count" : 65905,
            "type" : "VEC2"
        },
        {
            "bufferView" : 29,
            "componentType" : 5125,
            "count" : 295257,
            "type" : "SCALAR"
        },
        {
            "bufferView" : 30,
            "componentType" : 5126,
            "count" : 65855,
            "max" : [
                0.3305787444114685,
                0.47809115052223206,
                0.3515404462814331
            ],
            "min" : [
                -0.03225487470626831,
                0.39472371339797974,
                0.12905508279800415
            ],
            "type" : "VEC3"
        },
        {
            "bufferView" : 31,
            "componentType" : 5126,
            "count" : 65855,
            "type" : "VEC3"
        },
        {
            "bufferView" : 32,
            "componentType" : 5126,
            "count" : 65855,
            "type" : "VEC2"
        },
        {
            "bufferView" : 33,
            "componentType" : 5126,
            "count" : 65855,
            "type" : "VEC2"
        },
        {
            "bufferView" : 34,
            "componentType" : 5125,
            "count" : 279333,
            "type" : "SCALAR"
        },
        {
            "bufferView" : 35,
            "componentType" : 5126,
            "count" : 66100,
            "max" : [
                0.366834819316864,
                0.478108286857605,
                0.35836654901504517
            ],
            "min" : [
                -0.032244399189949036,
                0.39491263031959534,
                0.10495105385780334
            ],
            "type" : "VEC3"
        },
        {
            "bufferView" : 36,
            "componentType" : 5126,
            "count" : 66100,
            "type" : "VEC3"
        },
        {
            "bufferView" : 37,
            "componentType" : 5126,
            "count" : 66100,
            "type" : "VEC2"
        },
        {
            "bufferView" : 38,
            "componentType" : 5126,
            "count" : 66100,
            "type" : "VEC2"
        },
        {
            "bufferView" : 39,
            "componentType" : 5125,
            "count" : 223668,
            "type" : "SCALAR"
        },
        {
            "bufferView" : 40,
            "componentType" : 5126,
            "count" : 66012,
            "max" : [
                0.36641383171081543,
                0.47809115052223206,
                0.35769957304000854
            ],
            "min" : [
                0.029350191354751587,
                0.39945751428604126,
                0.0946497842669487
            ],
            "type" : "VEC3"
        },
        {
            "bufferView" : 41,
            "componentType" : 5126,
            "count" : 66012,
            "type" : "VEC3"
        },
        {
            "bufferView" : 42,
            "componentType" : 5126,
            "count" : 66012,
            "type" : "VEC2"
        },
        {
            "bufferView" : 43,
            "componentType" : 5126,
            "count" : 66012,
            "type" : "VEC2"
        },
        {
            "bufferView" : 44,
            "componentType" : 5125,
            "count" : 240198,
            "type" : "SCALAR"
        },
        {
            "bufferView" : 45,
            "componentType" : 5126,
            "count" : 39812,
            "max" : [
                0.22178015112876892,
                0.4774087965488434,
                0.2232622355222702
            ],
            "min" : [
                0.030948132276535034,
                0.39836251735687256,
                0.0946497842669487
            ],
            "type" : "VEC3"
        },
        {
            "bufferView" : 46,
            "componentType" : 5126,
            "count" : 39812,
            "type" : "VEC3"
        },
        {
            "bufferView" : 47,
            "componentType" : 5126,
            "count" : 39812,
            "type" : "VEC2"
        },
        {
            "bufferView" : 48,
            "componentType" : 5126,
            "count" : 39812,
            "type" : "VEC2"
        },
        {
            "bufferView" : 49,
            "componentType" : 5123,
            "count" : 132132,
            "type" : "SCALAR"
        }
    ],
    "bufferViews" : [
        {
            "buffer" : 0,
            "byteLength" : 792480,
            "byteOffset" : 0
        },
        {
            "buffer" : 0,
            "byteLength" : 792480,
            "byteOffset" : 792480
        },
        {
            "buffer" : 0,
            "byteLength" : 528320,
            "byteOffset" : 1584960
        },
        {
            "buffer" : 0,
            "byteLength" : 528320,
            "byteOffset" : 2113280
        },
        {
            "buffer" : 0,
            "byteLength" : 1214448,
            "byteOffset" : 2641600
        },
        {
            "buffer" : 0,
            "byteLength" : 790020,
            "byteOffset" : 3856048
        },
        {
            "buffer" : 0,
            "byteLength" : 790020,
            "byteOffset" : 4646068
        },
        {
            "buffer" : 0,
            "byteLength" : 526680,
            "byteOffset" : 5436088
        },
        {
            "buffer" : 0,
            "byteLength" : 526680,
            "byteOffset" : 5962768
        },
        {
            "buffer" : 0,
            "byteLength" : 1208412,
            "byteOffset" : 6489448
        },
        {
            "buffer" : 0,
            "byteLength" : 793944,
            "byteOffset" : 7697860
        },
        {
            "buffer" : 0,
            "byteLength" : 793944,
            "byteOffset" : 8491804
        },
        {
            "buffer" : 0,
            "byteLength" : 529296,
            "byteOffset" : 9285748
        },
        {
            "buffer" : 0,
            "byteLength" : 529296,
            "byteOffset" : 9815044
        },
        {
            "buffer" : 0,
            "byteLength" : 1045392,
            "byteOffset" : 10344340
        },
        {
            "buffer" : 0,
            "byteLength" : 790728,
            "byteOffset" : 11389732
        },
        {
            "buffer" : 0,
            "byteLength" : 790728,
            "byteOffset" : 12180460
        },
        {
            "buffer" : 0,
            "byteLength" : 527152,
            "byteOffset" : 12971188
        },
        {
            "buffer" : 0,
            "byteLength" : 527152,
            "byteOffset" : 13498340
        },
        {
            "buffer" : 0,
            "byteLength" : 1120752,
            "byteOffset" : 14025492
        },
        {
            "buffer" : 0,
            "byteLength" : 790584,
            "byteOffset" : 15146244
        },
        {
            "buffer" : 0,
            "byteLength" : 790584,
            "byteOffset" : 15936828
        },
        {
            "buffer" : 0,
            "byteLength" : 527056,
            "byteOffset" : 16727412
        },
        {
            "buffer" : 0,
            "byteLength" : 527056,
            "byteOffset" : 17254468
        },
        {
            "buffer" : 0,
            "byteLength" : 1181868,
            "byteOffset" : 17781524
        },
        {
            "buffer" : 0,
            "byteLength" : 790860,
            "byteOffset" : 18963392
        },
        {
            "buffer" : 0,
            "byteLength" : 790860,
            "byteOffset" : 19754252
        },
        {
            "buffer" : 0,
            "byteLength" : 527240,
            "byteOffset" : 20545112
        },
        {
            "buffer" : 0,
            "byteLength" : 527240,
            "byteOffset" : 21072352
        },
        {
            "buffer" : 0,
            "byteLength" : 1181028,
            "byteOffset" : 21599592
        },
        {
            "buffer" : 0,
            "byteLength" : 790260,
            "byteOffset" : 22780620
        },
        {
            "buffer" : 0,
            "byteLength" : 790260,
            "byteOffset" : 23570880
        },
        {
            "buffer" : 0,
            "byteLength" : 526840,
            "byteOffset" : 24361140
        },
        {
            "buffer" : 0,
            "byteLength" : 526840,
            "byteOffset" : 24887980
        },
        {
            "buffer" : 0,
            "byteLength" : 1117332,
            "byteOffset" : 25414820
        },
        {
            "buffer" : 0,
            "byteLength" : 793200,
            "byteOffset" : 26532152
        },
        {
            "buffer" : 0,
            "byteLength" : 793200,
            "byteOffset" : 27325352
        },
        {
            "buffer" : 0,
            "byteLength" : 528800,
            "byteOffset" : 28118552
        },
        {
            "buffer" : 0,
            "byteLength" : 528800,
            "byteOffset" : 28647352
        },
        {
            "buffer" : 0,
            "byteLength" : 894672,
            "byteOffset" : 29176152
        },
        {
            "buffer" : 0,
            "byteLength" : 792144,
            "byteOffset" : 30070824
        },
        {
            "buffer" : 0,
            "byteLength" : 792144,
            "byteOffset" : 30862968
        },
        {
            "buffer" : 0,
            "byteLength" : 528096,
            "byteOffset" : 31655112
        },
        {
            "buffer" : 0,
            "byteLength" : 528096,
            "byteOffset" : 32183208
        },
        {
            "buffer" : 0,
            "byteLength" : 960792,
            "byteOffset" : 32711304
        },
        {
            "buffer" : 0,
            "byteLength" : 477744,
            "byteOffset" : 33672096
        },
        {
            "buffer" : 0,
            "byteLength" : 477744,
            "byteOffset" : 34149840
        },
        {
            "buffer" : 0,
            "byteLength" : 318496,
            "byteOffset" : 34627584
        },
        {
            "buffer" : 0,
            "byteLength" : 318496,
            "byteOffset" : 34946080
        },
        {
            "buffer" : 0,
            "byteLength" : 264264,
            "byteOffset" : 35264576
        }
    ],
    "buffers" : [
        {
            "byteLength" : 35528840,
            "uri" : "scene.bin"
        }
    ]
}
