{
  "accessors": [
    {
      "bufferView": 2,
      "componentType": 5126,
      "count": 41150,
      "max": [
        0.04294256120920181,
        0.058131493628025055,
        0.11943463981151581
      ],
      "min": [
        -0.222079336643219,
        -0.007323124445974827,
        -0.14473778009414673
      ],
      "type": "VEC3"
    },
    {
      "bufferView": 2,
      "byteOffset": 493800,
      "componentType": 5126,
      "count": 41150,
      "max": [
        0.9999569058418274,
        0.9999997019767761,
        0.999993085861206
      ],
      "min": [
        -0.9999096393585205,
        -0.999968409538269,
        -0.999958336353302
      ],
      "type": "VEC3"
    },
    {
      "bufferView": 1,
      "componentType": 5126,
      "count": 41150,
      "max": [
        0.9999464750289917,
        0.9994611740112305
      ],
      "min": [
        6.824697265983559e-06,
        6.311587640084326e-05
      ],
      "type": "VEC2"
    },
    {
      "bufferView": 1,
      "byteOffset": 329200,
      "componentType": 5126,
      "count": 41150,
      "max": [
        0.9999464750289917,
        0.9994611740112305
      ],
      "min": [
        6.824697265983559e-06,
        6.311587640084326e-05
      ],
      "type": "VEC2"
    },
    {
      "bufferView": 1,
      "byteOffset": 658400,
      "componentType": 5126,
      "count": 41150,
      "max": [
        0.9999464750289917,
        0.9994611740112305
      ],
      "min": [
        6.824697265983559e-06,
        6.311587640084326e-05
      ],
      "type": "VEC2"
    },
    {
      "bufferView": 1,
      "byteOffset": 987600,
      "componentType": 5126,
      "count": 41150,
      "max": [
        0.9999464750289917,
        0.9994611740112305
      ],
      "min": [
        6.824697265983559e-06,
        6.311587640084326e-05
      ],
      "type": "VEC2"
    },
    {
      "bufferView": 1,
      "byteOffset": 1316800,
      "componentType": 5126,
      "count": 41150,
      "max": [
        0.9999464750289917,
        0.9994611740112305
      ],
      "min": [
        6.824697265983559e-06,
        6.311587640084326e-05
      ],
      "type": "VEC2"
    },
    {
      "bufferView": 0,
      "componentType": 5125,
      "count": 182745,
      "type": "SCALAR"
    }
  ],
  "asset": {
    "extras": {
      "author": "alban (https://sketchfab.com/alban)",
      "license": "CC-BY-4.0 (http://creativecommons.org/licenses/by/4.0/)",
      "source": "https://sketchfab.com/3d-models/ribs-from-joia-f767d24e638f4d1180898f690ad3018c",
      "title": "Ribs from Joia"
    },
    "generator": "Sketchfab-14.38.0",
    "version": "2.0"
  },
  "bufferViews": [
    {
      "buffer": 0,
      "byteLength": 730980,
      "name": "floatBufferViews",
      "target": 34963
    },
    {
      "buffer": 0,
      "byteLength": 1646000,
      "byteOffset": 730980,
      "byteStride": 8,
      "name": "floatBufferViews",
      "target": 34962
    },
    {
      "buffer": 0,
      "byteLength": 987600,
      "byteOffset": 2376980,
      "byteStride": 12,
      "name": "floatBufferViews",
      "target": 34962
    }
  ],
  "buffers": [
    {
      "byteLength": 3364580,
      "uri": "scene.bin"
    }
  ],
  "extensionsUsed": [
    "KHR_materials_unlit"
  ],
  "images": [
    {
      "uri": "textures/material_0_baseColor.jpeg"
    }
  ],
  "materials": [
    {
      "extensions": {
        "KHR_materials_unlit": {}
      },
      "name": "material_0",
      "pbrMetallicRoughness": {
        "baseColorTexture": {
          "index": 0
        },
        "metallicFactor": 0.0
      }
    }
  ],
  "meshes": [
    {
      "name": "Object_0",
      "primitives": [
        {
          "attributes": {
            "NORMAL": 1,
            "POSITION": 0,
            "TEXCOORD_0": 2,
            "TEXCOORD_1": 3,
            "TEXCOORD_2": 4,
            "TEXCOORD_3": 5,
            "TEXCOORD_4": 6
          },
          "indices": 7,
          "material": 0,
          "mode": 4
        }
      ]
    }
  ],
  "nodes": [
    {
      "children": [
        1
      ],
      "matrix": [
        1.0,
        0.0,
        0.0,
        0.0,
        0.0,
        2.220446049250313e-16,
        -1.0,
        0.0,
        0.0,
        1.0,
        2.220446049250313e-16,
        0.0,
        0.0,
        0.0,
        0.0,
        1.0
      ],
      "name": "Sketchfab_model"
    },
    {
      "children": [
        2
      ],
      "name": "root"
    },
    {
      "children": [
        3
      ],
      "matrix": [
        1.0,
        0.0,
        0.0,
        0.0,
        0.0,
        2.220446049250313e-16,
        1.0,
        0.0,
        0.0,
        -1.0,
        2.220446049250313e-16,
        0.0,
        0.0,
        0.0,
        0.0,
        1.0
      ],
      "name": "GLTF_SceneRootNode"
    },
    {
      "children": [
        4
      ],
      "name": "_0"
    },
    {
      "mesh": 0,
      "name": "Object_4"
    }
  ],
  "samplers": [
    {
      "magFilter": 9729,
      "minFilter": 9987,
      "wrapS": 10497,
      "wrapT": 10497
    }
  ],
  "scene": 0,
  "scenes": [
    {
      "name": "Sketchfab_Scene",
      "nodes": [
        0
      ]
    }
  ],
  "textures": [
    {
      "sampler": 0,
      "source": 0
    }
  ]
}
